<svg xmlns="http://www.w3.org/2000/svg" viewBox="0 0 1200 630" role="img" aria-labelledby="title desc">
  <title id="title">AI and Storytelling Creative Coding Guide</title>
  <desc id="desc">Guide thumbnail for AI and Storytelling Creative Coding.</desc>
  <defs>
    <linearGradient id="bg" x1="0" y1="0" x2="1" y2="1">
      <stop offset="0%" stop-color="#172554" />
      <stop offset="100%" stop-color="#4c1d95" />
    </linearGradient>
    <linearGradient id="accent" x1="0" y1="0" x2="1" y2="0">
      <stop offset="0%" stop-color="#c084fc" />
      <stop offset="100%" stop-color="#f9a8d4" />
    </linearGradient>
  </defs>
  <rect width="1200" height="630" fill="url(#bg)" />
  <g opacity="0.2" fill="none" stroke="#f5d0fe">
    <path d="M794 142c64-42 148-48 232-18-12 88-48 162-108 222-84 10-160-8-228-52 18-66 52-116 104-152z" stroke-width="16" />
    <path d="M840 220c52 8 98 28 138 60" stroke-width="10" />
    <path d="M792 316c62-2 116 10 162 38" stroke-width="10" />
  </g>
  <rect x="84" y="88" width="196" height="36" rx="18" fill="url(#accent)" />
  <text x="108" y="112" fill="#2e1065" font-size="18" font-family="Segoe UI, Arial, sans-serif" font-weight="700" letter-spacing="1.8">LEARN GUIDE</text>
  <text x="84" y="224" fill="#faf5ff" font-size="60" font-family="Georgia, Times New Roman, serif" font-weight="700">AI &amp; Storytelling</text>
  <text x="84" y="286" fill="#faf5ff" font-size="60" font-family="Georgia, Times New Roman, serif" font-weight="700">Creative Coding</text>
  <text x="84" y="340" fill="#f5d0fe" font-size="26" font-family="Segoe UI, Arial, sans-serif">Repeatable experiments without losing authorship</text>
  <text x="84" y="448" fill="#fdf2f8" font-size="24" font-family="Segoe UI, Arial, sans-serif">narrative intent  /  structure  /  experimentation</text>
</svg>