<svg xmlns="http://www.w3.org/2000/svg" viewBox="0 0 1200 630" role="img" aria-labelledby="title desc">
  <title id="title">AI and Storytelling Creative Coding</title>
  <desc id="desc">Editorial thumbnail for AI and Storytelling Creative Coding.</desc>
  <defs>
    <linearGradient id="bg" x1="0" y1="0" x2="1" y2="1">
      <stop offset="0%" stop-color="#130f1f" />
      <stop offset="100%" stop-color="#2a1738" />
    </linearGradient>
    <linearGradient id="accent" x1="0" y1="0" x2="1" y2="0">
      <stop offset="0%" stop-color="#f97316" />
      <stop offset="100%" stop-color="#fb7185" />
    </linearGradient>
  </defs>
  <rect width="1200" height="630" fill="url(#bg)" />
  <g opacity="0.2" fill="none" stroke="#f9a8d4">
    <path d="M826 88c-86 50-148 120-184 210 42 48 90 86 146 114 66-30 124-76 174-138-40-74-86-136-136-186z" stroke-width="16" />
    <path d="M826 88c26 94 14 168-38 222" stroke-width="10" />
    <path d="M642 298c84-6 154 18 210 72" stroke-width="10" />
  </g>
  <rect x="84" y="88" width="214" height="36" rx="18" fill="url(#accent)" />
  <text x="108" y="112" fill="#1a0f1f" font-size="18" font-family="Segoe UI, Arial, sans-serif" font-weight="700" letter-spacing="1.8">LEARN ARTICLE</text>
  <text x="84" y="224" fill="#fff7ed" font-size="60" font-family="Georgia, Times New Roman, serif" font-weight="700">AI &amp; Storytelling</text>
  <text x="84" y="286" fill="#ffe4e6" font-size="60" font-family="Georgia, Times New Roman, serif" font-weight="700">Creative Coding</text>
  <text x="84" y="340" fill="#fdba74" font-size="26" font-family="Segoe UI, Arial, sans-serif">Generative systems as narrative and interaction tools</text>
  <text x="84" y="448" fill="#fecdd3" font-size="24" font-family="Segoe UI, Arial, sans-serif">creative coding  /  AI storytelling  /  generative art</text>
</svg>